<mxfile host="app.diagrams.net" modified="2023-10-07T12:44:27.273Z" agent="Mozilla/5.0 (Windows NT 10.0; Win64; x64; rv:109.0) Gecko/20100101 Firefox/118.0" etag="vwSrcTn8i9OfbNu7RuGR" version="22.0.4" type="device">
  <diagram name="Pagina-1" id="-7TaJepKktMIaGSF3yA5">
    <mxGraphModel dx="1434" dy="856" grid="1" gridSize="10" guides="1" tooltips="1" connect="1" arrows="1" fold="1" page="1" pageScale="1" pageWidth="827" pageHeight="1169" math="0" shadow="0">
      <root>
        <mxCell id="0" />
        <mxCell id="1" parent="0" />
        <mxCell id="9G_jLwgwKhTL4ey_LXDS-27" value="q0" style="ellipse;whiteSpace=wrap;html=1;aspect=fixed;" vertex="1" parent="1">
          <mxGeometry x="80" y="400" width="40" height="40" as="geometry" />
        </mxCell>
        <mxCell id="9G_jLwgwKhTL4ey_LXDS-30" style="rounded=0;orthogonalLoop=1;jettySize=auto;html=1;" edge="1" parent="1" source="9G_jLwgwKhTL4ey_LXDS-27" target="9G_jLwgwKhTL4ey_LXDS-40">
          <mxGeometry relative="1" as="geometry">
            <mxPoint x="120.00213562373108" y="405.85786437626894" as="sourcePoint" />
          </mxGeometry>
        </mxCell>
        <mxCell id="9G_jLwgwKhTL4ey_LXDS-31" value="t3_B_D" style="edgeLabel;html=1;align=center;verticalAlign=middle;resizable=0;points=[];" vertex="1" connectable="0" parent="9G_jLwgwKhTL4ey_LXDS-30">
          <mxGeometry x="0.0557" y="-1" relative="1" as="geometry">
            <mxPoint x="-22" y="-9" as="offset" />
          </mxGeometry>
        </mxCell>
        <mxCell id="9G_jLwgwKhTL4ey_LXDS-32" style="rounded=0;orthogonalLoop=1;jettySize=auto;html=1;" edge="1" parent="1" source="9G_jLwgwKhTL4ey_LXDS-27" target="9G_jLwgwKhTL4ey_LXDS-43">
          <mxGeometry relative="1" as="geometry">
            <mxPoint x="171.71786437626895" y="525.8578643762689" as="targetPoint" />
            <mxPoint x="120.00213562373108" y="434.14213562373106" as="sourcePoint" />
          </mxGeometry>
        </mxCell>
        <mxCell id="9G_jLwgwKhTL4ey_LXDS-33" value="t4_C_D" style="edgeLabel;html=1;align=center;verticalAlign=middle;resizable=0;points=[];" vertex="1" connectable="0" parent="9G_jLwgwKhTL4ey_LXDS-32">
          <mxGeometry x="-0.1295" y="2" relative="1" as="geometry">
            <mxPoint x="-18" y="15" as="offset" />
          </mxGeometry>
        </mxCell>
        <mxCell id="9G_jLwgwKhTL4ey_LXDS-45" style="edgeStyle=orthogonalEdgeStyle;rounded=0;orthogonalLoop=1;jettySize=auto;html=1;" edge="1" parent="1" source="9G_jLwgwKhTL4ey_LXDS-37" target="9G_jLwgwKhTL4ey_LXDS-27">
          <mxGeometry relative="1" as="geometry" />
        </mxCell>
        <mxCell id="9G_jLwgwKhTL4ey_LXDS-50" value="t1_A_B" style="edgeLabel;html=1;align=center;verticalAlign=middle;resizable=0;points=[];" vertex="1" connectable="0" parent="9G_jLwgwKhTL4ey_LXDS-45">
          <mxGeometry x="0.0667" y="2" relative="1" as="geometry">
            <mxPoint x="4" y="8" as="offset" />
          </mxGeometry>
        </mxCell>
        <mxCell id="9G_jLwgwKhTL4ey_LXDS-37" value="q3" style="ellipse;whiteSpace=wrap;html=1;aspect=fixed;" vertex="1" parent="1">
          <mxGeometry x="240" y="400" width="40" height="40" as="geometry" />
        </mxCell>
        <mxCell id="9G_jLwgwKhTL4ey_LXDS-38" style="rounded=0;orthogonalLoop=1;jettySize=auto;html=1;" edge="1" parent="1" source="9G_jLwgwKhTL4ey_LXDS-40" target="9G_jLwgwKhTL4ey_LXDS-37">
          <mxGeometry relative="1" as="geometry" />
        </mxCell>
        <mxCell id="9G_jLwgwKhTL4ey_LXDS-39" value="t4_C_D" style="edgeLabel;html=1;align=center;verticalAlign=middle;resizable=0;points=[];" vertex="1" connectable="0" parent="9G_jLwgwKhTL4ey_LXDS-38">
          <mxGeometry x="-0.2508" y="-2" relative="1" as="geometry">
            <mxPoint x="38" y="-5" as="offset" />
          </mxGeometry>
        </mxCell>
        <mxCell id="9G_jLwgwKhTL4ey_LXDS-40" value="q1" style="ellipse;whiteSpace=wrap;html=1;aspect=fixed;" vertex="1" parent="1">
          <mxGeometry x="160" y="320" width="40" height="40" as="geometry" />
        </mxCell>
        <mxCell id="9G_jLwgwKhTL4ey_LXDS-41" style="rounded=0;orthogonalLoop=1;jettySize=auto;html=1;" edge="1" parent="1" source="9G_jLwgwKhTL4ey_LXDS-43" target="9G_jLwgwKhTL4ey_LXDS-37">
          <mxGeometry relative="1" as="geometry">
            <mxPoint x="285.85786437626894" y="525.8578643762689" as="targetPoint" />
          </mxGeometry>
        </mxCell>
        <mxCell id="9G_jLwgwKhTL4ey_LXDS-42" value="t3_B_D" style="edgeLabel;html=1;align=center;verticalAlign=middle;resizable=0;points=[];" vertex="1" connectable="0" parent="9G_jLwgwKhTL4ey_LXDS-41">
          <mxGeometry x="-0.1758" y="-2" relative="1" as="geometry">
            <mxPoint x="33" y="4" as="offset" />
          </mxGeometry>
        </mxCell>
        <mxCell id="9G_jLwgwKhTL4ey_LXDS-43" value="q2" style="ellipse;whiteSpace=wrap;html=1;aspect=fixed;" vertex="1" parent="1">
          <mxGeometry x="160" y="480" width="40" height="40" as="geometry" />
        </mxCell>
        <mxCell id="9G_jLwgwKhTL4ey_LXDS-53" style="edgeStyle=orthogonalEdgeStyle;rounded=0;orthogonalLoop=1;jettySize=auto;html=1;" edge="1" parent="1" target="9G_jLwgwKhTL4ey_LXDS-57" source="9G_jLwgwKhTL4ey_LXDS-37">
          <mxGeometry relative="1" as="geometry">
            <mxPoint x="280" y="420" as="sourcePoint" />
          </mxGeometry>
        </mxCell>
        <mxCell id="9G_jLwgwKhTL4ey_LXDS-54" value="t1_A_B" style="edgeLabel;html=1;align=center;verticalAlign=middle;resizable=0;points=[];" vertex="1" connectable="0" parent="9G_jLwgwKhTL4ey_LXDS-53">
          <mxGeometry x="0.15" y="-2" relative="1" as="geometry">
            <mxPoint x="-6" y="8" as="offset" />
          </mxGeometry>
        </mxCell>
        <mxCell id="9G_jLwgwKhTL4ey_LXDS-55" style="edgeStyle=orthogonalEdgeStyle;rounded=0;orthogonalLoop=1;jettySize=auto;html=1;" edge="1" parent="1" source="9G_jLwgwKhTL4ey_LXDS-57" target="9G_jLwgwKhTL4ey_LXDS-58">
          <mxGeometry relative="1" as="geometry" />
        </mxCell>
        <mxCell id="9G_jLwgwKhTL4ey_LXDS-56" value="t2_B_A" style="edgeLabel;html=1;align=center;verticalAlign=middle;resizable=0;points=[];" vertex="1" connectable="0" parent="9G_jLwgwKhTL4ey_LXDS-55">
          <mxGeometry x="-0.075" y="2" relative="1" as="geometry">
            <mxPoint x="3" y="12" as="offset" />
          </mxGeometry>
        </mxCell>
        <mxCell id="9G_jLwgwKhTL4ey_LXDS-57" value="q4" style="ellipse;whiteSpace=wrap;html=1;aspect=fixed;" vertex="1" parent="1">
          <mxGeometry x="360" y="400" width="40" height="40" as="geometry" />
        </mxCell>
        <mxCell id="9G_jLwgwKhTL4ey_LXDS-58" value="q5" style="ellipse;whiteSpace=wrap;html=1;aspect=fixed;" vertex="1" parent="1">
          <mxGeometry x="480" y="400" width="40" height="40" as="geometry" />
        </mxCell>
      </root>
    </mxGraphModel>
  </diagram>
</mxfile>
